<mxfile host="drawio-plugin" modified="2021-04-29T14:50:30.471Z" agent="5.0 (Windows NT 6.2; Win64; x64) AppleWebKit/537.36 (KHTML, like Gecko) Chrome/87.0.4280.141 Safari/537.36" etag="rdvpHxV4TA2DdesoVDaL" version="13.7.9" type="embed" pages="3"><diagram id="R2lEEEUBdFMjLlhIrx00" name="ER Diagram"><mxGraphModel dx="519" dy="185" grid="1" gridSize="10" guides="1" tooltips="1" connect="1" arrows="1" fold="1" page="1" pageScale="1" pageWidth="850" pageHeight="1100" background="none" math="0" shadow="0" extFonts="Permanent Marker^https://fonts.googleapis.com/css?family=Permanent+Marker"><root><mxCell id="0"/><mxCell id="1" parent="0"/><mxCell id="T9Ecbh7ZK0_thpFpKrt3-1" value="Data" style="shape=table;startSize=40;container=1;collapsible=1;childLayout=tableLayout;fixedRows=1;rowLines=0;fontStyle=1;align=center;resizeLast=1;" parent="1" vertex="1"><mxGeometry x="80" y="60" width="250" height="770.0000000000002" as="geometry"/></mxCell><mxCell id="T9Ecbh7ZK0_thpFpKrt3-2" value="" style="shape=partialRectangle;collapsible=0;dropTarget=0;pointerEvents=0;fillColor=none;top=0;left=0;bottom=1;right=0;points=[[0,0.5],[1,0.5]];portConstraint=eastwest;" parent="T9Ecbh7ZK0_thpFpKrt3-1" vertex="1"><mxGeometry y="40" width="250" height="30" as="geometry"/></mxCell><mxCell id="T9Ecbh7ZK0_thpFpKrt3-3" value="PK" style="shape=partialRectangle;connectable=0;fillColor=none;top=0;left=0;bottom=0;right=0;fontStyle=1;overflow=hidden;" parent="T9Ecbh7ZK0_thpFpKrt3-2" vertex="1"><mxGeometry width="30" height="30" as="geometry"/></mxCell><mxCell id="T9Ecbh7ZK0_thpFpKrt3-4" value="entry_id" style="shape=partialRectangle;connectable=0;fillColor=none;top=0;left=0;bottom=0;right=0;align=left;spacingLeft=6;fontStyle=5;overflow=hidden;" parent="T9Ecbh7ZK0_thpFpKrt3-2" vertex="1"><mxGeometry x="30" width="220" height="30" as="geometry"/></mxCell><mxCell id="T9Ecbh7ZK0_thpFpKrt3-5" value="" style="shape=partialRectangle;collapsible=0;dropTarget=0;pointerEvents=0;fillColor=none;top=0;left=0;bottom=0;right=0;points=[[0,0.5],[1,0.5]];portConstraint=eastwest;" parent="T9Ecbh7ZK0_thpFpKrt3-1" vertex="1"><mxGeometry y="70" width="250" height="30" as="geometry"/></mxCell><mxCell id="T9Ecbh7ZK0_thpFpKrt3-6" value="FK" style="shape=partialRectangle;connectable=0;fillColor=none;top=0;left=0;bottom=0;right=0;editable=1;overflow=hidden;" parent="T9Ecbh7ZK0_thpFpKrt3-5" vertex="1"><mxGeometry width="30" height="30" as="geometry"/></mxCell><mxCell id="T9Ecbh7ZK0_thpFpKrt3-7" value="player_id" style="shape=partialRectangle;connectable=0;fillColor=none;top=0;left=0;bottom=0;right=0;align=left;spacingLeft=6;overflow=hidden;" parent="T9Ecbh7ZK0_thpFpKrt3-5" vertex="1"><mxGeometry x="30" width="220" height="30" as="geometry"/></mxCell><mxCell id="T9Ecbh7ZK0_thpFpKrt3-8" value="" style="shape=partialRectangle;collapsible=0;dropTarget=0;pointerEvents=0;fillColor=none;top=0;left=0;bottom=0;right=0;points=[[0,0.5],[1,0.5]];portConstraint=eastwest;" parent="T9Ecbh7ZK0_thpFpKrt3-1" vertex="1"><mxGeometry y="100" width="250" height="30" as="geometry"/></mxCell><mxCell id="T9Ecbh7ZK0_thpFpKrt3-9" value="FK" style="shape=partialRectangle;connectable=0;fillColor=none;top=0;left=0;bottom=0;right=0;editable=1;overflow=hidden;" parent="T9Ecbh7ZK0_thpFpKrt3-8" vertex="1"><mxGeometry width="30" height="30" as="geometry"/></mxCell><mxCell id="T9Ecbh7ZK0_thpFpKrt3-10" value="event_id" style="shape=partialRectangle;connectable=0;fillColor=none;top=0;left=0;bottom=0;right=0;align=left;spacingLeft=6;overflow=hidden;" parent="T9Ecbh7ZK0_thpFpKrt3-8" vertex="1"><mxGeometry x="30" width="220" height="30" as="geometry"/></mxCell><mxCell id="2" style="shape=partialRectangle;collapsible=0;dropTarget=0;pointerEvents=0;fillColor=none;top=0;left=0;bottom=0;right=0;points=[[0,0.5],[1,0.5]];portConstraint=eastwest;" parent="T9Ecbh7ZK0_thpFpKrt3-1" vertex="1"><mxGeometry y="130" width="250" height="20" as="geometry"/></mxCell><mxCell id="3" style="shape=partialRectangle;connectable=0;fillColor=none;top=0;left=0;bottom=0;right=0;editable=1;overflow=hidden;" parent="2" vertex="1"><mxGeometry width="30" height="20" as="geometry"/></mxCell><mxCell id="4" value="timestamp" style="shape=partialRectangle;connectable=0;fillColor=none;top=0;left=0;bottom=0;right=0;align=left;spacingLeft=6;overflow=hidden;" parent="2" vertex="1"><mxGeometry x="30" width="220" height="20" as="geometry"/></mxCell><mxCell id="T9Ecbh7ZK0_thpFpKrt3-21" style="shape=partialRectangle;collapsible=0;dropTarget=0;pointerEvents=0;fillColor=none;top=0;left=0;bottom=0;right=0;points=[[0,0.5],[1,0.5]];portConstraint=eastwest;" parent="T9Ecbh7ZK0_thpFpKrt3-1" vertex="1"><mxGeometry y="150" width="250" height="20" as="geometry"/></mxCell><mxCell id="T9Ecbh7ZK0_thpFpKrt3-22" value="" style="shape=partialRectangle;connectable=0;fillColor=none;top=0;left=0;bottom=0;right=0;editable=1;overflow=hidden;" parent="T9Ecbh7ZK0_thpFpKrt3-21" vertex="1"><mxGeometry width="30" height="20" as="geometry"/></mxCell><mxCell id="T9Ecbh7ZK0_thpFpKrt3-23" value="chance_of_playing_this_round" style="shape=partialRectangle;connectable=0;fillColor=none;top=0;left=0;bottom=0;right=0;align=left;spacingLeft=6;overflow=hidden;" parent="T9Ecbh7ZK0_thpFpKrt3-21" vertex="1"><mxGeometry x="30" width="220" height="20" as="geometry"/></mxCell><mxCell id="T9Ecbh7ZK0_thpFpKrt3-24" style="shape=partialRectangle;collapsible=0;dropTarget=0;pointerEvents=0;fillColor=none;top=0;left=0;bottom=0;right=0;points=[[0,0.5],[1,0.5]];portConstraint=eastwest;" parent="T9Ecbh7ZK0_thpFpKrt3-1" vertex="1"><mxGeometry y="170" width="250" height="20" as="geometry"/></mxCell><mxCell id="T9Ecbh7ZK0_thpFpKrt3-25" style="shape=partialRectangle;connectable=0;fillColor=none;top=0;left=0;bottom=0;right=0;editable=1;overflow=hidden;" parent="T9Ecbh7ZK0_thpFpKrt3-24" vertex="1"><mxGeometry width="30" height="20" as="geometry"/></mxCell><mxCell id="T9Ecbh7ZK0_thpFpKrt3-26" value="form" style="shape=partialRectangle;connectable=0;fillColor=none;top=0;left=0;bottom=0;right=0;align=left;spacingLeft=6;overflow=hidden;" parent="T9Ecbh7ZK0_thpFpKrt3-24" vertex="1"><mxGeometry x="30" width="220" height="20" as="geometry"/></mxCell><mxCell id="T9Ecbh7ZK0_thpFpKrt3-27" style="shape=partialRectangle;collapsible=0;dropTarget=0;pointerEvents=0;fillColor=none;top=0;left=0;bottom=0;right=0;points=[[0,0.5],[1,0.5]];portConstraint=eastwest;" parent="T9Ecbh7ZK0_thpFpKrt3-1" vertex="1"><mxGeometry y="190" width="250" height="20" as="geometry"/></mxCell><mxCell id="T9Ecbh7ZK0_thpFpKrt3-28" style="shape=partialRectangle;connectable=0;fillColor=none;top=0;left=0;bottom=0;right=0;editable=1;overflow=hidden;" parent="T9Ecbh7ZK0_thpFpKrt3-27" vertex="1"><mxGeometry width="30" height="20" as="geometry"/></mxCell><mxCell id="T9Ecbh7ZK0_thpFpKrt3-29" value="points_per_game" style="shape=partialRectangle;connectable=0;fillColor=none;top=0;left=0;bottom=0;right=0;align=left;spacingLeft=6;overflow=hidden;" parent="T9Ecbh7ZK0_thpFpKrt3-27" vertex="1"><mxGeometry x="30" width="220" height="20" as="geometry"/></mxCell><mxCell id="wgq0GRheThqaYTGHAJiZ-41" style="shape=partialRectangle;collapsible=0;dropTarget=0;pointerEvents=0;fillColor=none;top=0;left=0;bottom=0;right=0;points=[[0,0.5],[1,0.5]];portConstraint=eastwest;" parent="T9Ecbh7ZK0_thpFpKrt3-1" vertex="1"><mxGeometry y="210" width="250" height="20" as="geometry"/></mxCell><mxCell id="wgq0GRheThqaYTGHAJiZ-42" style="shape=partialRectangle;connectable=0;fillColor=none;top=0;left=0;bottom=0;right=0;editable=1;overflow=hidden;" parent="wgq0GRheThqaYTGHAJiZ-41" vertex="1"><mxGeometry width="30" height="20" as="geometry"/></mxCell><mxCell id="wgq0GRheThqaYTGHAJiZ-43" value="status" style="shape=partialRectangle;connectable=0;fillColor=none;top=0;left=0;bottom=0;right=0;align=left;spacingLeft=6;overflow=hidden;" parent="wgq0GRheThqaYTGHAJiZ-41" vertex="1"><mxGeometry x="30" width="220" height="20" as="geometry"/></mxCell><mxCell id="wgq0GRheThqaYTGHAJiZ-44" style="shape=partialRectangle;collapsible=0;dropTarget=0;pointerEvents=0;fillColor=none;top=0;left=0;bottom=0;right=0;points=[[0,0.5],[1,0.5]];portConstraint=eastwest;" parent="T9Ecbh7ZK0_thpFpKrt3-1" vertex="1"><mxGeometry y="230" width="250" height="20" as="geometry"/></mxCell><mxCell id="wgq0GRheThqaYTGHAJiZ-45" style="shape=partialRectangle;connectable=0;fillColor=none;top=0;left=0;bottom=0;right=0;editable=1;overflow=hidden;" parent="wgq0GRheThqaYTGHAJiZ-44" vertex="1"><mxGeometry width="30" height="20" as="geometry"/></mxCell><mxCell id="wgq0GRheThqaYTGHAJiZ-46" value="minutes_h" style="shape=partialRectangle;connectable=0;fillColor=none;top=0;left=0;bottom=0;right=0;align=left;spacingLeft=6;overflow=hidden;" parent="wgq0GRheThqaYTGHAJiZ-44" vertex="1"><mxGeometry x="30" width="220" height="20" as="geometry"/></mxCell><mxCell id="5" style="shape=partialRectangle;collapsible=0;dropTarget=0;pointerEvents=0;fillColor=none;top=0;left=0;bottom=0;right=0;points=[[0,0.5],[1,0.5]];portConstraint=eastwest;" parent="T9Ecbh7ZK0_thpFpKrt3-1" vertex="1"><mxGeometry y="250" width="250" height="20" as="geometry"/></mxCell><mxCell id="6" style="shape=partialRectangle;connectable=0;fillColor=none;top=0;left=0;bottom=0;right=0;editable=1;overflow=hidden;" parent="5" vertex="1"><mxGeometry width="30" height="20" as="geometry"/></mxCell><mxCell id="7" value="minutes_a" style="shape=partialRectangle;connectable=0;fillColor=none;top=0;left=0;bottom=0;right=0;align=left;spacingLeft=6;overflow=hidden;" parent="5" vertex="1"><mxGeometry x="30" width="220" height="20" as="geometry"/></mxCell><mxCell id="wgq0GRheThqaYTGHAJiZ-47" style="shape=partialRectangle;collapsible=0;dropTarget=0;pointerEvents=0;fillColor=none;top=0;left=0;bottom=0;right=0;points=[[0,0.5],[1,0.5]];portConstraint=eastwest;" parent="T9Ecbh7ZK0_thpFpKrt3-1" vertex="1"><mxGeometry y="270" width="250" height="20" as="geometry"/></mxCell><mxCell id="wgq0GRheThqaYTGHAJiZ-48" style="shape=partialRectangle;connectable=0;fillColor=none;top=0;left=0;bottom=0;right=0;editable=1;overflow=hidden;" parent="wgq0GRheThqaYTGHAJiZ-47" vertex="1"><mxGeometry width="30" height="20" as="geometry"/></mxCell><mxCell id="wgq0GRheThqaYTGHAJiZ-49" value="goals_h" style="shape=partialRectangle;connectable=0;fillColor=none;top=0;left=0;bottom=0;right=0;align=left;spacingLeft=6;overflow=hidden;" parent="wgq0GRheThqaYTGHAJiZ-47" vertex="1"><mxGeometry x="30" width="220" height="20" as="geometry"/></mxCell><mxCell id="8" style="shape=partialRectangle;collapsible=0;dropTarget=0;pointerEvents=0;fillColor=none;top=0;left=0;bottom=0;right=0;points=[[0,0.5],[1,0.5]];portConstraint=eastwest;" parent="T9Ecbh7ZK0_thpFpKrt3-1" vertex="1"><mxGeometry y="290" width="250" height="20" as="geometry"/></mxCell><mxCell id="9" style="shape=partialRectangle;connectable=0;fillColor=none;top=0;left=0;bottom=0;right=0;editable=1;overflow=hidden;" parent="8" vertex="1"><mxGeometry width="30" height="20" as="geometry"/></mxCell><mxCell id="10" value="goals_a" style="shape=partialRectangle;connectable=0;fillColor=none;top=0;left=0;bottom=0;right=0;align=left;spacingLeft=6;overflow=hidden;" parent="8" vertex="1"><mxGeometry x="30" width="220" height="20" as="geometry"/></mxCell><mxCell id="wgq0GRheThqaYTGHAJiZ-50" style="shape=partialRectangle;collapsible=0;dropTarget=0;pointerEvents=0;fillColor=none;top=0;left=0;bottom=0;right=0;points=[[0,0.5],[1,0.5]];portConstraint=eastwest;" parent="T9Ecbh7ZK0_thpFpKrt3-1" vertex="1"><mxGeometry y="310" width="250" height="20" as="geometry"/></mxCell><mxCell id="wgq0GRheThqaYTGHAJiZ-51" style="shape=partialRectangle;connectable=0;fillColor=none;top=0;left=0;bottom=0;right=0;editable=1;overflow=hidden;" parent="wgq0GRheThqaYTGHAJiZ-50" vertex="1"><mxGeometry width="30" height="20" as="geometry"/></mxCell><mxCell id="wgq0GRheThqaYTGHAJiZ-52" value="assists_h" style="shape=partialRectangle;connectable=0;fillColor=none;top=0;left=0;bottom=0;right=0;align=left;spacingLeft=6;overflow=hidden;" parent="wgq0GRheThqaYTGHAJiZ-50" vertex="1"><mxGeometry x="30" width="220" height="20" as="geometry"/></mxCell><mxCell id="11" style="shape=partialRectangle;collapsible=0;dropTarget=0;pointerEvents=0;fillColor=none;top=0;left=0;bottom=0;right=0;points=[[0,0.5],[1,0.5]];portConstraint=eastwest;" parent="T9Ecbh7ZK0_thpFpKrt3-1" vertex="1"><mxGeometry y="330" width="250" height="20" as="geometry"/></mxCell><mxCell id="12" style="shape=partialRectangle;connectable=0;fillColor=none;top=0;left=0;bottom=0;right=0;editable=1;overflow=hidden;" parent="11" vertex="1"><mxGeometry width="30" height="20" as="geometry"/></mxCell><mxCell id="13" value="assists_a" style="shape=partialRectangle;connectable=0;fillColor=none;top=0;left=0;bottom=0;right=0;align=left;spacingLeft=6;overflow=hidden;" parent="11" vertex="1"><mxGeometry x="30" width="220" height="20" as="geometry"/></mxCell><mxCell id="wgq0GRheThqaYTGHAJiZ-53" style="shape=partialRectangle;collapsible=0;dropTarget=0;pointerEvents=0;fillColor=none;top=0;left=0;bottom=0;right=0;points=[[0,0.5],[1,0.5]];portConstraint=eastwest;" parent="T9Ecbh7ZK0_thpFpKrt3-1" vertex="1"><mxGeometry y="350" width="250" height="20" as="geometry"/></mxCell><mxCell id="wgq0GRheThqaYTGHAJiZ-54" style="shape=partialRectangle;connectable=0;fillColor=none;top=0;left=0;bottom=0;right=0;editable=1;overflow=hidden;" parent="wgq0GRheThqaYTGHAJiZ-53" vertex="1"><mxGeometry width="30" height="20" as="geometry"/></mxCell><mxCell id="wgq0GRheThqaYTGHAJiZ-55" value="clean_sheets_h" style="shape=partialRectangle;connectable=0;fillColor=none;top=0;left=0;bottom=0;right=0;align=left;spacingLeft=6;overflow=hidden;" parent="wgq0GRheThqaYTGHAJiZ-53" vertex="1"><mxGeometry x="30" width="220" height="20" as="geometry"/></mxCell><mxCell id="14" style="shape=partialRectangle;collapsible=0;dropTarget=0;pointerEvents=0;fillColor=none;top=0;left=0;bottom=0;right=0;points=[[0,0.5],[1,0.5]];portConstraint=eastwest;" parent="T9Ecbh7ZK0_thpFpKrt3-1" vertex="1"><mxGeometry y="370" width="250" height="20" as="geometry"/></mxCell><mxCell id="15" style="shape=partialRectangle;connectable=0;fillColor=none;top=0;left=0;bottom=0;right=0;editable=1;overflow=hidden;" parent="14" vertex="1"><mxGeometry width="30" height="20" as="geometry"/></mxCell><mxCell id="16" value="clean_sheets_a" style="shape=partialRectangle;connectable=0;fillColor=none;top=0;left=0;bottom=0;right=0;align=left;spacingLeft=6;overflow=hidden;" parent="14" vertex="1"><mxGeometry x="30" width="220" height="20" as="geometry"/></mxCell><mxCell id="wgq0GRheThqaYTGHAJiZ-56" style="shape=partialRectangle;collapsible=0;dropTarget=0;pointerEvents=0;fillColor=none;top=0;left=0;bottom=0;right=0;points=[[0,0.5],[1,0.5]];portConstraint=eastwest;" parent="T9Ecbh7ZK0_thpFpKrt3-1" vertex="1"><mxGeometry y="390" width="250" height="20" as="geometry"/></mxCell><mxCell id="wgq0GRheThqaYTGHAJiZ-57" style="shape=partialRectangle;connectable=0;fillColor=none;top=0;left=0;bottom=0;right=0;editable=1;overflow=hidden;" parent="wgq0GRheThqaYTGHAJiZ-56" vertex="1"><mxGeometry width="30" height="20" as="geometry"/></mxCell><mxCell id="wgq0GRheThqaYTGHAJiZ-58" value="yellow_cards" style="shape=partialRectangle;connectable=0;fillColor=none;top=0;left=0;bottom=0;right=0;align=left;spacingLeft=6;overflow=hidden;" parent="wgq0GRheThqaYTGHAJiZ-56" vertex="1"><mxGeometry x="30" width="220" height="20" as="geometry"/></mxCell><mxCell id="wgq0GRheThqaYTGHAJiZ-59" style="shape=partialRectangle;collapsible=0;dropTarget=0;pointerEvents=0;fillColor=none;top=0;left=0;bottom=0;right=0;points=[[0,0.5],[1,0.5]];portConstraint=eastwest;" parent="T9Ecbh7ZK0_thpFpKrt3-1" vertex="1"><mxGeometry y="410" width="250" height="20" as="geometry"/></mxCell><mxCell id="wgq0GRheThqaYTGHAJiZ-60" style="shape=partialRectangle;connectable=0;fillColor=none;top=0;left=0;bottom=0;right=0;editable=1;overflow=hidden;" parent="wgq0GRheThqaYTGHAJiZ-59" vertex="1"><mxGeometry width="30" height="20" as="geometry"/></mxCell><mxCell id="wgq0GRheThqaYTGHAJiZ-61" value="red_cards" style="shape=partialRectangle;connectable=0;fillColor=none;top=0;left=0;bottom=0;right=0;align=left;spacingLeft=6;overflow=hidden;" parent="wgq0GRheThqaYTGHAJiZ-59" vertex="1"><mxGeometry x="30" width="220" height="20" as="geometry"/></mxCell><mxCell id="wgq0GRheThqaYTGHAJiZ-62" style="shape=partialRectangle;collapsible=0;dropTarget=0;pointerEvents=0;fillColor=none;top=0;left=0;bottom=0;right=0;points=[[0,0.5],[1,0.5]];portConstraint=eastwest;" parent="T9Ecbh7ZK0_thpFpKrt3-1" vertex="1"><mxGeometry y="430" width="250" height="20" as="geometry"/></mxCell><mxCell id="wgq0GRheThqaYTGHAJiZ-63" style="shape=partialRectangle;connectable=0;fillColor=none;top=0;left=0;bottom=0;right=0;editable=1;overflow=hidden;" parent="wgq0GRheThqaYTGHAJiZ-62" vertex="1"><mxGeometry width="30" height="20" as="geometry"/></mxCell><mxCell id="wgq0GRheThqaYTGHAJiZ-64" value="influence" style="shape=partialRectangle;connectable=0;fillColor=none;top=0;left=0;bottom=0;right=0;align=left;spacingLeft=6;overflow=hidden;" parent="wgq0GRheThqaYTGHAJiZ-62" vertex="1"><mxGeometry x="30" width="220" height="20" as="geometry"/></mxCell><mxCell id="wgq0GRheThqaYTGHAJiZ-65" style="shape=partialRectangle;collapsible=0;dropTarget=0;pointerEvents=0;fillColor=none;top=0;left=0;bottom=0;right=0;points=[[0,0.5],[1,0.5]];portConstraint=eastwest;" parent="T9Ecbh7ZK0_thpFpKrt3-1" vertex="1"><mxGeometry y="450" width="250" height="20" as="geometry"/></mxCell><mxCell id="wgq0GRheThqaYTGHAJiZ-66" style="shape=partialRectangle;connectable=0;fillColor=none;top=0;left=0;bottom=0;right=0;editable=1;overflow=hidden;" parent="wgq0GRheThqaYTGHAJiZ-65" vertex="1"><mxGeometry width="30" height="20" as="geometry"/></mxCell><mxCell id="wgq0GRheThqaYTGHAJiZ-67" value="creativity" style="shape=partialRectangle;connectable=0;fillColor=none;top=0;left=0;bottom=0;right=0;align=left;spacingLeft=6;overflow=hidden;" parent="wgq0GRheThqaYTGHAJiZ-65" vertex="1"><mxGeometry x="30" width="220" height="20" as="geometry"/></mxCell><mxCell id="wgq0GRheThqaYTGHAJiZ-68" style="shape=partialRectangle;collapsible=0;dropTarget=0;pointerEvents=0;fillColor=none;top=0;left=0;bottom=0;right=0;points=[[0,0.5],[1,0.5]];portConstraint=eastwest;" parent="T9Ecbh7ZK0_thpFpKrt3-1" vertex="1"><mxGeometry y="470" width="250" height="20" as="geometry"/></mxCell><mxCell id="wgq0GRheThqaYTGHAJiZ-69" style="shape=partialRectangle;connectable=0;fillColor=none;top=0;left=0;bottom=0;right=0;editable=1;overflow=hidden;" parent="wgq0GRheThqaYTGHAJiZ-68" vertex="1"><mxGeometry width="30" height="20" as="geometry"/></mxCell><mxCell id="wgq0GRheThqaYTGHAJiZ-70" value="threat" style="shape=partialRectangle;connectable=0;fillColor=none;top=0;left=0;bottom=0;right=0;align=left;spacingLeft=6;overflow=hidden;" parent="wgq0GRheThqaYTGHAJiZ-68" vertex="1"><mxGeometry x="30" width="220" height="20" as="geometry"/></mxCell><mxCell id="wgq0GRheThqaYTGHAJiZ-71" style="shape=partialRectangle;collapsible=0;dropTarget=0;pointerEvents=0;fillColor=none;top=0;left=0;bottom=0;right=0;points=[[0,0.5],[1,0.5]];portConstraint=eastwest;" parent="T9Ecbh7ZK0_thpFpKrt3-1" vertex="1"><mxGeometry y="490" width="250" height="20" as="geometry"/></mxCell><mxCell id="wgq0GRheThqaYTGHAJiZ-72" style="shape=partialRectangle;connectable=0;fillColor=none;top=0;left=0;bottom=0;right=0;editable=1;overflow=hidden;" parent="wgq0GRheThqaYTGHAJiZ-71" vertex="1"><mxGeometry width="30" height="20" as="geometry"/></mxCell><mxCell id="wgq0GRheThqaYTGHAJiZ-73" value="next_opposition" style="shape=partialRectangle;connectable=0;fillColor=none;top=0;left=0;bottom=0;right=0;align=left;spacingLeft=6;overflow=hidden;" parent="wgq0GRheThqaYTGHAJiZ-71" vertex="1"><mxGeometry x="30" width="220" height="20" as="geometry"/></mxCell><mxCell id="wgq0GRheThqaYTGHAJiZ-74" style="shape=partialRectangle;collapsible=0;dropTarget=0;pointerEvents=0;fillColor=none;top=0;left=0;bottom=0;right=0;points=[[0,0.5],[1,0.5]];portConstraint=eastwest;" parent="T9Ecbh7ZK0_thpFpKrt3-1" vertex="1"><mxGeometry y="510" width="250" height="20" as="geometry"/></mxCell><mxCell id="wgq0GRheThqaYTGHAJiZ-75" style="shape=partialRectangle;connectable=0;fillColor=none;top=0;left=0;bottom=0;right=0;editable=1;overflow=hidden;" parent="wgq0GRheThqaYTGHAJiZ-74" vertex="1"><mxGeometry width="30" height="20" as="geometry"/></mxCell><mxCell id="wgq0GRheThqaYTGHAJiZ-76" value="is_home" style="shape=partialRectangle;connectable=0;fillColor=none;top=0;left=0;bottom=0;right=0;align=left;spacingLeft=6;overflow=hidden;" parent="wgq0GRheThqaYTGHAJiZ-74" vertex="1"><mxGeometry x="30" width="220" height="20" as="geometry"/></mxCell><mxCell id="MTt20oEHAtVKhstoHL5M-7" style="shape=partialRectangle;collapsible=0;dropTarget=0;pointerEvents=0;fillColor=none;top=0;left=0;bottom=0;right=0;points=[[0,0.5],[1,0.5]];portConstraint=eastwest;" parent="T9Ecbh7ZK0_thpFpKrt3-1" vertex="1"><mxGeometry y="530" width="250" height="20" as="geometry"/></mxCell><mxCell id="MTt20oEHAtVKhstoHL5M-8" style="shape=partialRectangle;connectable=0;fillColor=none;top=0;left=0;bottom=0;right=0;editable=1;overflow=hidden;" parent="MTt20oEHAtVKhstoHL5M-7" vertex="1"><mxGeometry width="30" height="20" as="geometry"/></mxCell><mxCell id="MTt20oEHAtVKhstoHL5M-9" value="kickoff_time" style="shape=partialRectangle;connectable=0;fillColor=none;top=0;left=0;bottom=0;right=0;align=left;spacingLeft=6;overflow=hidden;" parent="MTt20oEHAtVKhstoHL5M-7" vertex="1"><mxGeometry x="30" width="220" height="20" as="geometry"/></mxCell><mxCell id="wgq0GRheThqaYTGHAJiZ-83" style="shape=partialRectangle;collapsible=0;dropTarget=0;pointerEvents=0;fillColor=none;top=0;left=0;bottom=0;right=0;points=[[0,0.5],[1,0.5]];portConstraint=eastwest;" parent="T9Ecbh7ZK0_thpFpKrt3-1" vertex="1"><mxGeometry y="550" width="250" height="20" as="geometry"/></mxCell><mxCell id="wgq0GRheThqaYTGHAJiZ-84" style="shape=partialRectangle;connectable=0;fillColor=none;top=0;left=0;bottom=0;right=0;editable=1;overflow=hidden;" parent="wgq0GRheThqaYTGHAJiZ-83" vertex="1"><mxGeometry width="30" height="20" as="geometry"/></mxCell><mxCell id="wgq0GRheThqaYTGHAJiZ-85" value="opposition_strength" style="shape=partialRectangle;connectable=0;fillColor=none;top=0;left=0;bottom=0;right=0;align=left;spacingLeft=6;overflow=hidden;" parent="wgq0GRheThqaYTGHAJiZ-83" vertex="1"><mxGeometry x="30" width="220" height="20" as="geometry"/></mxCell><mxCell id="17" style="shape=partialRectangle;collapsible=0;dropTarget=0;pointerEvents=0;fillColor=none;top=0;left=0;bottom=0;right=0;points=[[0,0.5],[1,0.5]];portConstraint=eastwest;" parent="T9Ecbh7ZK0_thpFpKrt3-1" vertex="1"><mxGeometry y="570" width="250" height="20" as="geometry"/></mxCell><mxCell id="18" style="shape=partialRectangle;connectable=0;fillColor=none;top=0;left=0;bottom=0;right=0;editable=1;overflow=hidden;" parent="17" vertex="1"><mxGeometry width="30" height="20" as="geometry"/></mxCell><mxCell id="19" value="opposition_gf" style="shape=partialRectangle;connectable=0;fillColor=none;top=0;left=0;bottom=0;right=0;align=left;spacingLeft=6;overflow=hidden;" parent="17" vertex="1"><mxGeometry x="30" width="220" height="20" as="geometry"/></mxCell><mxCell id="20" style="shape=partialRectangle;collapsible=0;dropTarget=0;pointerEvents=0;fillColor=none;top=0;left=0;bottom=0;right=0;points=[[0,0.5],[1,0.5]];portConstraint=eastwest;" parent="T9Ecbh7ZK0_thpFpKrt3-1" vertex="1"><mxGeometry y="590" width="250" height="20" as="geometry"/></mxCell><mxCell id="21" style="shape=partialRectangle;connectable=0;fillColor=none;top=0;left=0;bottom=0;right=0;editable=1;overflow=hidden;" parent="20" vertex="1"><mxGeometry width="30" height="20" as="geometry"/></mxCell><mxCell id="22" value="opposition_ga" style="shape=partialRectangle;connectable=0;fillColor=none;top=0;left=0;bottom=0;right=0;align=left;spacingLeft=6;overflow=hidden;" parent="20" vertex="1"><mxGeometry x="30" width="220" height="20" as="geometry"/></mxCell><mxCell id="wgq0GRheThqaYTGHAJiZ-86" style="shape=partialRectangle;collapsible=0;dropTarget=0;pointerEvents=0;fillColor=none;top=0;left=0;bottom=0;right=0;points=[[0,0.5],[1,0.5]];portConstraint=eastwest;" parent="T9Ecbh7ZK0_thpFpKrt3-1" vertex="1"><mxGeometry y="610" width="250" height="30" as="geometry"/></mxCell><mxCell id="wgq0GRheThqaYTGHAJiZ-87" style="shape=partialRectangle;connectable=0;fillColor=none;top=0;left=0;bottom=0;right=0;editable=1;overflow=hidden;" parent="wgq0GRheThqaYTGHAJiZ-86" vertex="1"><mxGeometry width="30" height="30" as="geometry"/></mxCell><mxCell id="wgq0GRheThqaYTGHAJiZ-88" value="points_1" style="shape=partialRectangle;connectable=0;fillColor=none;top=0;left=0;bottom=0;right=0;align=left;spacingLeft=6;overflow=hidden;" parent="wgq0GRheThqaYTGHAJiZ-86" vertex="1"><mxGeometry x="30" width="220" height="30" as="geometry"/></mxCell><mxCell id="wgq0GRheThqaYTGHAJiZ-89" style="shape=partialRectangle;collapsible=0;dropTarget=0;pointerEvents=0;fillColor=none;top=0;left=0;bottom=0;right=0;points=[[0,0.5],[1,0.5]];portConstraint=eastwest;" parent="T9Ecbh7ZK0_thpFpKrt3-1" vertex="1"><mxGeometry y="640" width="250" height="20" as="geometry"/></mxCell><mxCell id="wgq0GRheThqaYTGHAJiZ-90" style="shape=partialRectangle;connectable=0;fillColor=none;top=0;left=0;bottom=0;right=0;editable=1;overflow=hidden;" parent="wgq0GRheThqaYTGHAJiZ-89" vertex="1"><mxGeometry width="30" height="20" as="geometry"/></mxCell><mxCell id="wgq0GRheThqaYTGHAJiZ-91" value="points_2" style="shape=partialRectangle;connectable=0;fillColor=none;top=0;left=0;bottom=0;right=0;align=left;spacingLeft=6;overflow=hidden;" parent="wgq0GRheThqaYTGHAJiZ-89" vertex="1"><mxGeometry x="30" width="220" height="20" as="geometry"/></mxCell><mxCell id="wgq0GRheThqaYTGHAJiZ-124" style="shape=partialRectangle;collapsible=0;dropTarget=0;pointerEvents=0;fillColor=none;top=0;left=0;bottom=0;right=0;points=[[0,0.5],[1,0.5]];portConstraint=eastwest;" parent="T9Ecbh7ZK0_thpFpKrt3-1" vertex="1"><mxGeometry y="660" width="250" height="20" as="geometry"/></mxCell><mxCell id="wgq0GRheThqaYTGHAJiZ-125" style="shape=partialRectangle;connectable=0;fillColor=none;top=0;left=0;bottom=0;right=0;editable=1;overflow=hidden;" parent="wgq0GRheThqaYTGHAJiZ-124" vertex="1"><mxGeometry width="30" height="20" as="geometry"/></mxCell><mxCell id="wgq0GRheThqaYTGHAJiZ-126" value="points_3" style="shape=partialRectangle;connectable=0;fillColor=none;top=0;left=0;bottom=0;right=0;align=left;spacingLeft=6;overflow=hidden;" parent="wgq0GRheThqaYTGHAJiZ-124" vertex="1"><mxGeometry x="30" width="220" height="20" as="geometry"/></mxCell><mxCell id="wgq0GRheThqaYTGHAJiZ-121" style="shape=partialRectangle;collapsible=0;dropTarget=0;pointerEvents=0;fillColor=none;top=0;left=0;bottom=0;right=0;points=[[0,0.5],[1,0.5]];portConstraint=eastwest;" parent="T9Ecbh7ZK0_thpFpKrt3-1" vertex="1"><mxGeometry y="680" width="250" height="20" as="geometry"/></mxCell><mxCell id="wgq0GRheThqaYTGHAJiZ-122" style="shape=partialRectangle;connectable=0;fillColor=none;top=0;left=0;bottom=0;right=0;editable=1;overflow=hidden;" parent="wgq0GRheThqaYTGHAJiZ-121" vertex="1"><mxGeometry width="30" height="20" as="geometry"/></mxCell><mxCell id="wgq0GRheThqaYTGHAJiZ-123" value="minutes_1" style="shape=partialRectangle;connectable=0;fillColor=none;top=0;left=0;bottom=0;right=0;align=left;spacingLeft=6;overflow=hidden;" parent="wgq0GRheThqaYTGHAJiZ-121" vertex="1"><mxGeometry x="30" width="220" height="20" as="geometry"/></mxCell><mxCell id="wgq0GRheThqaYTGHAJiZ-118" style="shape=partialRectangle;collapsible=0;dropTarget=0;pointerEvents=0;fillColor=none;top=0;left=0;bottom=0;right=0;points=[[0,0.5],[1,0.5]];portConstraint=eastwest;" parent="T9Ecbh7ZK0_thpFpKrt3-1" vertex="1"><mxGeometry y="700" width="250" height="20" as="geometry"/></mxCell><mxCell id="wgq0GRheThqaYTGHAJiZ-119" style="shape=partialRectangle;connectable=0;fillColor=none;top=0;left=0;bottom=0;right=0;editable=1;overflow=hidden;" parent="wgq0GRheThqaYTGHAJiZ-118" vertex="1"><mxGeometry width="30" height="20" as="geometry"/></mxCell><mxCell id="wgq0GRheThqaYTGHAJiZ-120" value="minutes_2" style="shape=partialRectangle;connectable=0;fillColor=none;top=0;left=0;bottom=0;right=0;align=left;spacingLeft=6;overflow=hidden;" parent="wgq0GRheThqaYTGHAJiZ-118" vertex="1"><mxGeometry x="30" width="220" height="20" as="geometry"/></mxCell><mxCell id="wgq0GRheThqaYTGHAJiZ-115" style="shape=partialRectangle;collapsible=0;dropTarget=0;pointerEvents=0;fillColor=none;top=0;left=0;bottom=0;right=0;points=[[0,0.5],[1,0.5]];portConstraint=eastwest;" parent="T9Ecbh7ZK0_thpFpKrt3-1" vertex="1"><mxGeometry y="720" width="250" height="20" as="geometry"/></mxCell><mxCell id="wgq0GRheThqaYTGHAJiZ-116" style="shape=partialRectangle;connectable=0;fillColor=none;top=0;left=0;bottom=0;right=0;editable=1;overflow=hidden;" parent="wgq0GRheThqaYTGHAJiZ-115" vertex="1"><mxGeometry width="30" height="20" as="geometry"/></mxCell><mxCell id="wgq0GRheThqaYTGHAJiZ-117" value="minutes_3" style="shape=partialRectangle;connectable=0;fillColor=none;top=0;left=0;bottom=0;right=0;align=left;spacingLeft=6;overflow=hidden;" parent="wgq0GRheThqaYTGHAJiZ-115" vertex="1"><mxGeometry x="30" width="220" height="20" as="geometry"/></mxCell><mxCell id="wgq0GRheThqaYTGHAJiZ-92" style="shape=partialRectangle;collapsible=0;dropTarget=0;pointerEvents=0;fillColor=none;top=0;left=0;bottom=0;right=0;points=[[0,0.5],[1,0.5]];portConstraint=eastwest;" parent="T9Ecbh7ZK0_thpFpKrt3-1" vertex="1"><mxGeometry y="740" width="250" height="30" as="geometry"/></mxCell><mxCell id="wgq0GRheThqaYTGHAJiZ-93" style="shape=partialRectangle;connectable=0;fillColor=none;top=0;left=0;bottom=0;right=0;editable=1;overflow=hidden;" parent="wgq0GRheThqaYTGHAJiZ-92" vertex="1"><mxGeometry width="30" height="30" as="geometry"/></mxCell><mxCell id="wgq0GRheThqaYTGHAJiZ-94" value="response" style="shape=partialRectangle;connectable=0;fillColor=none;top=0;left=0;bottom=0;right=0;align=left;spacingLeft=6;overflow=hidden;" parent="wgq0GRheThqaYTGHAJiZ-92" vertex="1"><mxGeometry x="30" width="220" height="30" as="geometry"/></mxCell><mxCell id="T9Ecbh7ZK0_thpFpKrt3-30" value="Players" style="shape=table;startSize=30;container=1;collapsible=1;childLayout=tableLayout;fixedRows=1;rowLines=0;fontStyle=1;align=center;resizeLast=1;" parent="1" vertex="1"><mxGeometry x="460" y="60" width="180" height="270" as="geometry"/></mxCell><mxCell id="T9Ecbh7ZK0_thpFpKrt3-31" value="" style="shape=partialRectangle;collapsible=0;dropTarget=0;pointerEvents=0;fillColor=none;top=0;left=0;bottom=1;right=0;points=[[0,0.5],[1,0.5]];portConstraint=eastwest;" parent="T9Ecbh7ZK0_thpFpKrt3-30" vertex="1"><mxGeometry y="30" width="180" height="30" as="geometry"/></mxCell><mxCell id="T9Ecbh7ZK0_thpFpKrt3-32" value="PK" style="shape=partialRectangle;connectable=0;fillColor=none;top=0;left=0;bottom=0;right=0;fontStyle=1;overflow=hidden;" parent="T9Ecbh7ZK0_thpFpKrt3-31" vertex="1"><mxGeometry width="30" height="30" as="geometry"/></mxCell><mxCell id="T9Ecbh7ZK0_thpFpKrt3-33" value="player_id" style="shape=partialRectangle;connectable=0;fillColor=none;top=0;left=0;bottom=0;right=0;align=left;spacingLeft=6;fontStyle=5;overflow=hidden;" parent="T9Ecbh7ZK0_thpFpKrt3-31" vertex="1"><mxGeometry x="30" width="150" height="30" as="geometry"/></mxCell><mxCell id="wgq0GRheThqaYTGHAJiZ-27" style="shape=partialRectangle;collapsible=0;dropTarget=0;pointerEvents=0;fillColor=none;top=0;left=0;bottom=0;right=0;points=[[0,0.5],[1,0.5]];portConstraint=eastwest;" parent="T9Ecbh7ZK0_thpFpKrt3-30" vertex="1"><mxGeometry y="60" width="180" height="30" as="geometry"/></mxCell><mxCell id="wgq0GRheThqaYTGHAJiZ-28" value="FK" style="shape=partialRectangle;connectable=0;fillColor=none;top=0;left=0;bottom=0;right=0;editable=1;overflow=hidden;" parent="wgq0GRheThqaYTGHAJiZ-27" vertex="1"><mxGeometry width="30" height="30" as="geometry"/></mxCell><mxCell id="wgq0GRheThqaYTGHAJiZ-29" value="team_id" style="shape=partialRectangle;connectable=0;fillColor=none;top=0;left=0;bottom=0;right=0;align=left;spacingLeft=6;overflow=hidden;" parent="wgq0GRheThqaYTGHAJiZ-27" vertex="1"><mxGeometry x="30" width="150" height="30" as="geometry"/></mxCell><mxCell id="wgq0GRheThqaYTGHAJiZ-109" style="shape=partialRectangle;collapsible=0;dropTarget=0;pointerEvents=0;fillColor=none;top=0;left=0;bottom=0;right=0;points=[[0,0.5],[1,0.5]];portConstraint=eastwest;" parent="T9Ecbh7ZK0_thpFpKrt3-30" vertex="1"><mxGeometry y="90" width="180" height="30" as="geometry"/></mxCell><mxCell id="wgq0GRheThqaYTGHAJiZ-110" value="FK" style="shape=partialRectangle;connectable=0;fillColor=none;top=0;left=0;bottom=0;right=0;editable=1;overflow=hidden;" parent="wgq0GRheThqaYTGHAJiZ-109" vertex="1"><mxGeometry width="30" height="30" as="geometry"/></mxCell><mxCell id="wgq0GRheThqaYTGHAJiZ-111" value="element_type" style="shape=partialRectangle;connectable=0;fillColor=none;top=0;left=0;bottom=0;right=0;align=left;spacingLeft=6;overflow=hidden;" parent="wgq0GRheThqaYTGHAJiZ-109" vertex="1"><mxGeometry x="30" width="150" height="30" as="geometry"/></mxCell><mxCell id="T9Ecbh7ZK0_thpFpKrt3-34" value="" style="shape=partialRectangle;collapsible=0;dropTarget=0;pointerEvents=0;fillColor=none;top=0;left=0;bottom=0;right=0;points=[[0,0.5],[1,0.5]];portConstraint=eastwest;" parent="T9Ecbh7ZK0_thpFpKrt3-30" vertex="1"><mxGeometry y="120" width="180" height="30" as="geometry"/></mxCell><mxCell id="T9Ecbh7ZK0_thpFpKrt3-35" value="" style="shape=partialRectangle;connectable=0;fillColor=none;top=0;left=0;bottom=0;right=0;editable=1;overflow=hidden;" parent="T9Ecbh7ZK0_thpFpKrt3-34" vertex="1"><mxGeometry width="30" height="30" as="geometry"/></mxCell><mxCell id="T9Ecbh7ZK0_thpFpKrt3-36" value="first_name" style="shape=partialRectangle;connectable=0;fillColor=none;top=0;left=0;bottom=0;right=0;align=left;spacingLeft=6;overflow=hidden;" parent="T9Ecbh7ZK0_thpFpKrt3-34" vertex="1"><mxGeometry x="30" width="150" height="30" as="geometry"/></mxCell><mxCell id="T9Ecbh7ZK0_thpFpKrt3-37" value="" style="shape=partialRectangle;collapsible=0;dropTarget=0;pointerEvents=0;fillColor=none;top=0;left=0;bottom=0;right=0;points=[[0,0.5],[1,0.5]];portConstraint=eastwest;" parent="T9Ecbh7ZK0_thpFpKrt3-30" vertex="1"><mxGeometry y="150" width="180" height="30" as="geometry"/></mxCell><mxCell id="T9Ecbh7ZK0_thpFpKrt3-38" value="" style="shape=partialRectangle;connectable=0;fillColor=none;top=0;left=0;bottom=0;right=0;editable=1;overflow=hidden;" parent="T9Ecbh7ZK0_thpFpKrt3-37" vertex="1"><mxGeometry width="30" height="30" as="geometry"/></mxCell><mxCell id="T9Ecbh7ZK0_thpFpKrt3-39" value="second_name" style="shape=partialRectangle;connectable=0;fillColor=none;top=0;left=0;bottom=0;right=0;align=left;spacingLeft=6;overflow=hidden;" parent="T9Ecbh7ZK0_thpFpKrt3-37" vertex="1"><mxGeometry x="30" width="150" height="30" as="geometry"/></mxCell><mxCell id="T9Ecbh7ZK0_thpFpKrt3-40" value="" style="shape=partialRectangle;collapsible=0;dropTarget=0;pointerEvents=0;fillColor=none;top=0;left=0;bottom=0;right=0;points=[[0,0.5],[1,0.5]];portConstraint=eastwest;" parent="T9Ecbh7ZK0_thpFpKrt3-30" vertex="1"><mxGeometry y="180" width="180" height="30" as="geometry"/></mxCell><mxCell id="T9Ecbh7ZK0_thpFpKrt3-41" value="" style="shape=partialRectangle;connectable=0;fillColor=none;top=0;left=0;bottom=0;right=0;editable=1;overflow=hidden;" parent="T9Ecbh7ZK0_thpFpKrt3-40" vertex="1"><mxGeometry width="30" height="30" as="geometry"/></mxCell><mxCell id="T9Ecbh7ZK0_thpFpKrt3-42" value="web_name" style="shape=partialRectangle;connectable=0;fillColor=none;top=0;left=0;bottom=0;right=0;align=left;spacingLeft=6;overflow=hidden;" parent="T9Ecbh7ZK0_thpFpKrt3-40" vertex="1"><mxGeometry x="30" width="150" height="30" as="geometry"/></mxCell><mxCell id="VI1LYQueUxwFX4Rqmynm-4" style="shape=partialRectangle;collapsible=0;dropTarget=0;pointerEvents=0;fillColor=none;top=0;left=0;bottom=0;right=0;points=[[0,0.5],[1,0.5]];portConstraint=eastwest;" parent="T9Ecbh7ZK0_thpFpKrt3-30" vertex="1"><mxGeometry y="210" width="180" height="30" as="geometry"/></mxCell><mxCell id="VI1LYQueUxwFX4Rqmynm-5" style="shape=partialRectangle;connectable=0;fillColor=none;top=0;left=0;bottom=0;right=0;editable=1;overflow=hidden;" parent="VI1LYQueUxwFX4Rqmynm-4" vertex="1"><mxGeometry width="30" height="30" as="geometry"/></mxCell><mxCell id="VI1LYQueUxwFX4Rqmynm-6" value="now_cost" style="shape=partialRectangle;connectable=0;fillColor=none;top=0;left=0;bottom=0;right=0;align=left;spacingLeft=6;overflow=hidden;" parent="VI1LYQueUxwFX4Rqmynm-4" vertex="1"><mxGeometry x="30" width="150" height="30" as="geometry"/></mxCell><mxCell id="3dDeVsiO88e1j2O2WPya-7" style="shape=partialRectangle;collapsible=0;dropTarget=0;pointerEvents=0;fillColor=none;top=0;left=0;bottom=0;right=0;points=[[0,0.5],[1,0.5]];portConstraint=eastwest;" parent="T9Ecbh7ZK0_thpFpKrt3-30" vertex="1"><mxGeometry y="240" width="180" height="30" as="geometry"/></mxCell><mxCell id="3dDeVsiO88e1j2O2WPya-8" style="shape=partialRectangle;connectable=0;fillColor=none;top=0;left=0;bottom=0;right=0;editable=1;overflow=hidden;" parent="3dDeVsiO88e1j2O2WPya-7" vertex="1"><mxGeometry width="30" height="30" as="geometry"/></mxCell><mxCell id="3dDeVsiO88e1j2O2WPya-9" value="initial_cost" style="shape=partialRectangle;connectable=0;fillColor=none;top=0;left=0;bottom=0;right=0;align=left;spacingLeft=6;overflow=hidden;" parent="3dDeVsiO88e1j2O2WPya-7" vertex="1"><mxGeometry x="30" width="150" height="30" as="geometry"/></mxCell><mxCell id="T9Ecbh7ZK0_thpFpKrt3-43" style="edgeStyle=orthogonalEdgeStyle;rounded=0;orthogonalLoop=1;jettySize=auto;html=1;exitX=1;exitY=0.5;exitDx=0;exitDy=0;entryX=0;entryY=0.5;entryDx=0;entryDy=0;" parent="1" source="T9Ecbh7ZK0_thpFpKrt3-5" target="T9Ecbh7ZK0_thpFpKrt3-31" edge="1"><mxGeometry relative="1" as="geometry"/></mxCell><mxCell id="wgq0GRheThqaYTGHAJiZ-1" value="Events" style="shape=table;startSize=30;container=1;collapsible=1;childLayout=tableLayout;fixedRows=1;rowLines=0;fontStyle=1;align=center;resizeLast=1;" parent="1" vertex="1"><mxGeometry x="460" y="360" width="180" height="130" as="geometry"/></mxCell><mxCell id="wgq0GRheThqaYTGHAJiZ-2" value="" style="shape=partialRectangle;collapsible=0;dropTarget=0;pointerEvents=0;fillColor=none;top=0;left=0;bottom=1;right=0;points=[[0,0.5],[1,0.5]];portConstraint=eastwest;" parent="wgq0GRheThqaYTGHAJiZ-1" vertex="1"><mxGeometry y="30" width="180" height="30" as="geometry"/></mxCell><mxCell id="wgq0GRheThqaYTGHAJiZ-3" value="PK" style="shape=partialRectangle;connectable=0;fillColor=none;top=0;left=0;bottom=0;right=0;fontStyle=1;overflow=hidden;" parent="wgq0GRheThqaYTGHAJiZ-2" vertex="1"><mxGeometry width="30" height="30" as="geometry"/></mxCell><mxCell id="wgq0GRheThqaYTGHAJiZ-4" value="event_id" style="shape=partialRectangle;connectable=0;fillColor=none;top=0;left=0;bottom=0;right=0;align=left;spacingLeft=6;fontStyle=5;overflow=hidden;" parent="wgq0GRheThqaYTGHAJiZ-2" vertex="1"><mxGeometry x="30" width="150" height="30" as="geometry"/></mxCell><mxCell id="wgq0GRheThqaYTGHAJiZ-5" value="" style="shape=partialRectangle;collapsible=0;dropTarget=0;pointerEvents=0;fillColor=none;top=0;left=0;bottom=0;right=0;points=[[0,0.5],[1,0.5]];portConstraint=eastwest;" parent="wgq0GRheThqaYTGHAJiZ-1" vertex="1"><mxGeometry y="60" width="180" height="30" as="geometry"/></mxCell><mxCell id="wgq0GRheThqaYTGHAJiZ-6" value="" style="shape=partialRectangle;connectable=0;fillColor=none;top=0;left=0;bottom=0;right=0;editable=1;overflow=hidden;" parent="wgq0GRheThqaYTGHAJiZ-5" vertex="1"><mxGeometry width="30" height="30" as="geometry"/></mxCell><mxCell id="wgq0GRheThqaYTGHAJiZ-7" value="deadline_time" style="shape=partialRectangle;connectable=0;fillColor=none;top=0;left=0;bottom=0;right=0;align=left;spacingLeft=6;overflow=hidden;" parent="wgq0GRheThqaYTGHAJiZ-5" vertex="1"><mxGeometry x="30" width="150" height="30" as="geometry"/></mxCell><mxCell id="wgq0GRheThqaYTGHAJiZ-8" value="" style="shape=partialRectangle;collapsible=0;dropTarget=0;pointerEvents=0;fillColor=none;top=0;left=0;bottom=0;right=0;points=[[0,0.5],[1,0.5]];portConstraint=eastwest;" parent="wgq0GRheThqaYTGHAJiZ-1" vertex="1"><mxGeometry y="90" width="180" height="30" as="geometry"/></mxCell><mxCell id="wgq0GRheThqaYTGHAJiZ-9" value="" style="shape=partialRectangle;connectable=0;fillColor=none;top=0;left=0;bottom=0;right=0;editable=1;overflow=hidden;" parent="wgq0GRheThqaYTGHAJiZ-8" vertex="1"><mxGeometry width="30" height="30" as="geometry"/></mxCell><mxCell id="wgq0GRheThqaYTGHAJiZ-10" value="finished" style="shape=partialRectangle;connectable=0;fillColor=none;top=0;left=0;bottom=0;right=0;align=left;spacingLeft=6;overflow=hidden;" parent="wgq0GRheThqaYTGHAJiZ-8" vertex="1"><mxGeometry x="30" width="150" height="30" as="geometry"/></mxCell><mxCell id="wgq0GRheThqaYTGHAJiZ-14" value="Teams" style="shape=table;startSize=30;container=1;collapsible=1;childLayout=tableLayout;fixedRows=1;rowLines=0;fontStyle=1;align=center;resizeLast=1;" parent="1" vertex="1"><mxGeometry x="800" y="60" width="180" height="160" as="geometry"/></mxCell><mxCell id="wgq0GRheThqaYTGHAJiZ-15" value="" style="shape=partialRectangle;collapsible=0;dropTarget=0;pointerEvents=0;fillColor=none;top=0;left=0;bottom=1;right=0;points=[[0,0.5],[1,0.5]];portConstraint=eastwest;" parent="wgq0GRheThqaYTGHAJiZ-14" vertex="1"><mxGeometry y="30" width="180" height="30" as="geometry"/></mxCell><mxCell id="wgq0GRheThqaYTGHAJiZ-16" value="PK" style="shape=partialRectangle;connectable=0;fillColor=none;top=0;left=0;bottom=0;right=0;fontStyle=1;overflow=hidden;" parent="wgq0GRheThqaYTGHAJiZ-15" vertex="1"><mxGeometry width="30" height="30" as="geometry"/></mxCell><mxCell id="wgq0GRheThqaYTGHAJiZ-17" value="team_id" style="shape=partialRectangle;connectable=0;fillColor=none;top=0;left=0;bottom=0;right=0;align=left;spacingLeft=6;fontStyle=5;overflow=hidden;" parent="wgq0GRheThqaYTGHAJiZ-15" vertex="1"><mxGeometry x="30" width="150" height="30" as="geometry"/></mxCell><mxCell id="wgq0GRheThqaYTGHAJiZ-18" value="" style="shape=partialRectangle;collapsible=0;dropTarget=0;pointerEvents=0;fillColor=none;top=0;left=0;bottom=0;right=0;points=[[0,0.5],[1,0.5]];portConstraint=eastwest;" parent="wgq0GRheThqaYTGHAJiZ-14" vertex="1"><mxGeometry y="60" width="180" height="30" as="geometry"/></mxCell><mxCell id="wgq0GRheThqaYTGHAJiZ-19" value="" style="shape=partialRectangle;connectable=0;fillColor=none;top=0;left=0;bottom=0;right=0;editable=1;overflow=hidden;" parent="wgq0GRheThqaYTGHAJiZ-18" vertex="1"><mxGeometry width="30" height="30" as="geometry"/></mxCell><mxCell id="wgq0GRheThqaYTGHAJiZ-20" value="name" style="shape=partialRectangle;connectable=0;fillColor=none;top=0;left=0;bottom=0;right=0;align=left;spacingLeft=6;overflow=hidden;" parent="wgq0GRheThqaYTGHAJiZ-18" vertex="1"><mxGeometry x="30" width="150" height="30" as="geometry"/></mxCell><mxCell id="wgq0GRheThqaYTGHAJiZ-32" style="shape=partialRectangle;collapsible=0;dropTarget=0;pointerEvents=0;fillColor=none;top=0;left=0;bottom=0;right=0;points=[[0,0.5],[1,0.5]];portConstraint=eastwest;" parent="wgq0GRheThqaYTGHAJiZ-14" vertex="1"><mxGeometry y="90" width="180" height="30" as="geometry"/></mxCell><mxCell id="wgq0GRheThqaYTGHAJiZ-33" style="shape=partialRectangle;connectable=0;fillColor=none;top=0;left=0;bottom=0;right=0;editable=1;overflow=hidden;" parent="wgq0GRheThqaYTGHAJiZ-32" vertex="1"><mxGeometry width="30" height="30" as="geometry"/></mxCell><mxCell id="wgq0GRheThqaYTGHAJiZ-34" value="short_name" style="shape=partialRectangle;connectable=0;fillColor=none;top=0;left=0;bottom=0;right=0;align=left;spacingLeft=6;overflow=hidden;" parent="wgq0GRheThqaYTGHAJiZ-32" vertex="1"><mxGeometry x="30" width="150" height="30" as="geometry"/></mxCell><mxCell id="wgq0GRheThqaYTGHAJiZ-38" style="shape=partialRectangle;collapsible=0;dropTarget=0;pointerEvents=0;fillColor=none;top=0;left=0;bottom=0;right=0;points=[[0,0.5],[1,0.5]];portConstraint=eastwest;" parent="wgq0GRheThqaYTGHAJiZ-14" vertex="1"><mxGeometry y="120" width="180" height="30" as="geometry"/></mxCell><mxCell id="wgq0GRheThqaYTGHAJiZ-39" style="shape=partialRectangle;connectable=0;fillColor=none;top=0;left=0;bottom=0;right=0;editable=1;overflow=hidden;" parent="wgq0GRheThqaYTGHAJiZ-38" vertex="1"><mxGeometry width="30" height="30" as="geometry"/></mxCell><mxCell id="wgq0GRheThqaYTGHAJiZ-40" value="strength" style="shape=partialRectangle;connectable=0;fillColor=none;top=0;left=0;bottom=0;right=0;align=left;spacingLeft=6;overflow=hidden;" parent="wgq0GRheThqaYTGHAJiZ-38" vertex="1"><mxGeometry x="30" width="150" height="30" as="geometry"/></mxCell><mxCell id="wgq0GRheThqaYTGHAJiZ-31" style="edgeStyle=orthogonalEdgeStyle;rounded=0;orthogonalLoop=1;jettySize=auto;html=1;exitX=1;exitY=0.5;exitDx=0;exitDy=0;entryX=0;entryY=0.5;entryDx=0;entryDy=0;" parent="1" source="wgq0GRheThqaYTGHAJiZ-27" target="wgq0GRheThqaYTGHAJiZ-15" edge="1"><mxGeometry relative="1" as="geometry"/></mxCell><mxCell id="wgq0GRheThqaYTGHAJiZ-96" value="Element Types" style="shape=table;startSize=30;container=1;collapsible=1;childLayout=tableLayout;fixedRows=1;rowLines=0;fontStyle=1;align=center;resizeLast=1;" parent="1" vertex="1"><mxGeometry x="800" y="360" width="180" height="100" as="geometry"/></mxCell><mxCell id="wgq0GRheThqaYTGHAJiZ-97" value="" style="shape=partialRectangle;collapsible=0;dropTarget=0;pointerEvents=0;fillColor=none;top=0;left=0;bottom=1;right=0;points=[[0,0.5],[1,0.5]];portConstraint=eastwest;" parent="wgq0GRheThqaYTGHAJiZ-96" vertex="1"><mxGeometry y="30" width="180" height="30" as="geometry"/></mxCell><mxCell id="wgq0GRheThqaYTGHAJiZ-98" value="PK" style="shape=partialRectangle;connectable=0;fillColor=none;top=0;left=0;bottom=0;right=0;fontStyle=1;overflow=hidden;" parent="wgq0GRheThqaYTGHAJiZ-97" vertex="1"><mxGeometry width="30" height="30" as="geometry"/></mxCell><mxCell id="wgq0GRheThqaYTGHAJiZ-99" value="element_type" style="shape=partialRectangle;connectable=0;fillColor=none;top=0;left=0;bottom=0;right=0;align=left;spacingLeft=6;fontStyle=5;overflow=hidden;" parent="wgq0GRheThqaYTGHAJiZ-97" vertex="1"><mxGeometry x="30" width="150" height="30" as="geometry"/></mxCell><mxCell id="wgq0GRheThqaYTGHAJiZ-100" value="" style="shape=partialRectangle;collapsible=0;dropTarget=0;pointerEvents=0;fillColor=none;top=0;left=0;bottom=0;right=0;points=[[0,0.5],[1,0.5]];portConstraint=eastwest;" parent="wgq0GRheThqaYTGHAJiZ-96" vertex="1"><mxGeometry y="60" width="180" height="30" as="geometry"/></mxCell><mxCell id="wgq0GRheThqaYTGHAJiZ-101" value="" style="shape=partialRectangle;connectable=0;fillColor=none;top=0;left=0;bottom=0;right=0;editable=1;overflow=hidden;" parent="wgq0GRheThqaYTGHAJiZ-100" vertex="1"><mxGeometry width="30" height="30" as="geometry"/></mxCell><mxCell id="wgq0GRheThqaYTGHAJiZ-102" value="singular_name" style="shape=partialRectangle;connectable=0;fillColor=none;top=0;left=0;bottom=0;right=0;align=left;spacingLeft=6;overflow=hidden;" parent="wgq0GRheThqaYTGHAJiZ-100" vertex="1"><mxGeometry x="30" width="150" height="30" as="geometry"/></mxCell><mxCell id="wgq0GRheThqaYTGHAJiZ-113" style="edgeStyle=orthogonalEdgeStyle;rounded=0;orthogonalLoop=1;jettySize=auto;html=1;exitX=1;exitY=0.5;exitDx=0;exitDy=0;entryX=0;entryY=0.5;entryDx=0;entryDy=0;" parent="1" source="T9Ecbh7ZK0_thpFpKrt3-8" target="wgq0GRheThqaYTGHAJiZ-2" edge="1"><mxGeometry relative="1" as="geometry"/></mxCell><mxCell id="wgq0GRheThqaYTGHAJiZ-114" style="edgeStyle=orthogonalEdgeStyle;rounded=0;orthogonalLoop=1;jettySize=auto;html=1;exitX=1;exitY=0.5;exitDx=0;exitDy=0;entryX=0;entryY=0.5;entryDx=0;entryDy=0;" parent="1" source="wgq0GRheThqaYTGHAJiZ-109" target="wgq0GRheThqaYTGHAJiZ-97" edge="1"><mxGeometry relative="1" as="geometry"/></mxCell></root></mxGraphModel></diagram><diagram id="d79IoMa-Z2BLfuQLBoBc" name="Architecture"><mxGraphModel dx="519" dy="185" grid="1" gridSize="10" guides="1" tooltips="1" connect="1" arrows="1" fold="1" page="1" pageScale="1" pageWidth="850" pageHeight="1100" math="0" shadow="0"><root><mxCell id="z32GkZLV4panWzkeXAcF-0"/><mxCell id="z32GkZLV4panWzkeXAcF-1" parent="z32GkZLV4panWzkeXAcF-0"/><mxCell id="z32GkZLV4panWzkeXAcF-2" value="Local raspi - exposes database with data modeller running every time data is pushed (avoids adding sklearn to Lambda)" style="rounded=0;whiteSpace=wrap;html=1;" parent="z32GkZLV4panWzkeXAcF-1" vertex="1"><mxGeometry x="135" y="430" width="180" height="90" as="geometry"/></mxCell><mxCell id="z32GkZLV4panWzkeXAcF-9" style="edgeStyle=orthogonalEdgeStyle;rounded=0;orthogonalLoop=1;jettySize=auto;html=1;exitX=0;exitY=0.5;exitDx=0;exitDy=0;entryX=1;entryY=0.5;entryDx=0;entryDy=0;" parent="z32GkZLV4panWzkeXAcF-1" source="z32GkZLV4panWzkeXAcF-3" target="z32GkZLV4panWzkeXAcF-2" edge="1"><mxGeometry relative="1" as="geometry"/></mxCell><mxCell id="z32GkZLV4panWzkeXAcF-3" value="Data collector Lambda function -&amp;nbsp; pushes to raspi database every hour" style="rounded=0;whiteSpace=wrap;html=1;" parent="z32GkZLV4panWzkeXAcF-1" vertex="1"><mxGeometry x="390" y="430" width="170" height="90" as="geometry"/></mxCell><mxCell id="z32GkZLV4panWzkeXAcF-14" style="edgeStyle=orthogonalEdgeStyle;rounded=0;orthogonalLoop=1;jettySize=auto;html=1;exitX=0.5;exitY=1;exitDx=0;exitDy=0;" parent="z32GkZLV4panWzkeXAcF-1" source="z32GkZLV4panWzkeXAcF-5" target="z32GkZLV4panWzkeXAcF-2" edge="1"><mxGeometry relative="1" as="geometry"/></mxCell><mxCell id="z32GkZLV4panWzkeXAcF-5" value="Team selector lambda function - given a team id, reads predictions and player /&amp;nbsp; team data from database" style="rounded=0;whiteSpace=wrap;html=1;" parent="z32GkZLV4panWzkeXAcF-1" vertex="1"><mxGeometry x="80" y="240" width="235" height="90" as="geometry"/></mxCell><mxCell id="z32GkZLV4panWzkeXAcF-15" style="edgeStyle=orthogonalEdgeStyle;rounded=0;orthogonalLoop=1;jettySize=auto;html=1;exitX=0.5;exitY=1;exitDx=0;exitDy=0;entryX=0.75;entryY=0;entryDx=0;entryDy=0;" parent="z32GkZLV4panWzkeXAcF-1" source="z32GkZLV4panWzkeXAcF-7" target="z32GkZLV4panWzkeXAcF-2" edge="1"><mxGeometry relative="1" as="geometry"/></mxCell><mxCell id="z32GkZLV4panWzkeXAcF-7" value="Transfer recommender lambda function - given a team id, reads predictions and player /&amp;nbsp; team data from database" style="rounded=0;whiteSpace=wrap;html=1;" parent="z32GkZLV4panWzkeXAcF-1" vertex="1"><mxGeometry x="350" y="250" width="235" height="80" as="geometry"/></mxCell><mxCell id="z32GkZLV4panWzkeXAcF-11" value="&lt;h1&gt;Database Layer&lt;/h1&gt;&lt;p&gt;Core database incuding predictions, teams, players, events, and data used to model&lt;/p&gt;" style="text;html=1;strokeColor=none;fillColor=none;spacing=5;spacingTop=-20;whiteSpace=wrap;overflow=hidden;rounded=0;" parent="z32GkZLV4panWzkeXAcF-1" vertex="1"><mxGeometry x="620" y="415" width="190" height="120" as="geometry"/></mxCell><mxCell id="z32GkZLV4panWzkeXAcF-12" value="&lt;h1&gt;API Layer&lt;/h1&gt;&lt;p&gt;Core functionality of Spring boot app - outsourced to AWS Lambda&lt;/p&gt;" style="text;html=1;strokeColor=none;fillColor=none;spacing=5;spacingTop=-20;whiteSpace=wrap;overflow=hidden;rounded=0;" parent="z32GkZLV4panWzkeXAcF-1" vertex="1"><mxGeometry x="630" y="230" width="190" height="120" as="geometry"/></mxCell><mxCell id="z32GkZLV4panWzkeXAcF-13" value="&lt;h1&gt;Application&lt;/h1&gt;&lt;p&gt;Angular frontend and Spring boot backend to call on API layer&lt;/p&gt;" style="text;html=1;strokeColor=none;fillColor=none;spacing=5;spacingTop=-20;whiteSpace=wrap;overflow=hidden;rounded=0;" parent="z32GkZLV4panWzkeXAcF-1" vertex="1"><mxGeometry x="630" y="60" width="190" height="120" as="geometry"/></mxCell><mxCell id="z32GkZLV4panWzkeXAcF-18" style="edgeStyle=orthogonalEdgeStyle;rounded=0;orthogonalLoop=1;jettySize=auto;html=1;exitX=1;exitY=0.5;exitDx=0;exitDy=0;entryX=0;entryY=0.5;entryDx=0;entryDy=0;" parent="z32GkZLV4panWzkeXAcF-1" source="z32GkZLV4panWzkeXAcF-16" target="z32GkZLV4panWzkeXAcF-17" edge="1"><mxGeometry relative="1" as="geometry"/></mxCell><mxCell id="z32GkZLV4panWzkeXAcF-16" value="Angular frontend" style="rounded=0;whiteSpace=wrap;html=1;" parent="z32GkZLV4panWzkeXAcF-1" vertex="1"><mxGeometry x="135" y="80" width="120" height="60" as="geometry"/></mxCell><mxCell id="z32GkZLV4panWzkeXAcF-19" style="edgeStyle=orthogonalEdgeStyle;rounded=0;orthogonalLoop=1;jettySize=auto;html=1;exitX=0.5;exitY=1;exitDx=0;exitDy=0;entryX=0.468;entryY=0;entryDx=0;entryDy=0;entryPerimeter=0;" parent="z32GkZLV4panWzkeXAcF-1" source="z32GkZLV4panWzkeXAcF-17" target="z32GkZLV4panWzkeXAcF-5" edge="1"><mxGeometry relative="1" as="geometry"/></mxCell><mxCell id="z32GkZLV4panWzkeXAcF-20" style="edgeStyle=orthogonalEdgeStyle;rounded=0;orthogonalLoop=1;jettySize=auto;html=1;exitX=0.75;exitY=1;exitDx=0;exitDy=0;" parent="z32GkZLV4panWzkeXAcF-1" source="z32GkZLV4panWzkeXAcF-17" target="z32GkZLV4panWzkeXAcF-7" edge="1"><mxGeometry relative="1" as="geometry"/></mxCell><mxCell id="z32GkZLV4panWzkeXAcF-17" value="Spring boot backend" style="rounded=0;whiteSpace=wrap;html=1;" parent="z32GkZLV4panWzkeXAcF-1" vertex="1"><mxGeometry x="370" y="80" width="120" height="60" as="geometry"/></mxCell></root></mxGraphModel></diagram><diagram id="V2oq6avYjrtht2gl59BQ" name="Data Collector Flow"><mxGraphModel dx="519" dy="185" grid="1" gridSize="10" guides="1" tooltips="1" connect="1" arrows="1" fold="1" page="1" pageScale="1" pageWidth="850" pageHeight="1100" math="0" shadow="0"><root><mxCell id="2d43wSeKXhC0iWQQYc0k-0"/><mxCell id="2d43wSeKXhC0iWQQYc0k-1" parent="2d43wSeKXhC0iWQQYc0k-0"/><mxCell id="2uu1BORdubVci02Plp6P-2" style="edgeStyle=orthogonalEdgeStyle;rounded=0;orthogonalLoop=1;jettySize=auto;html=1;exitX=0.5;exitY=1;exitDx=0;exitDy=0;entryX=0.5;entryY=0;entryDx=0;entryDy=0;" parent="2d43wSeKXhC0iWQQYc0k-1" source="2uu1BORdubVci02Plp6P-0" target="2uu1BORdubVci02Plp6P-1" edge="1"><mxGeometry relative="1" as="geometry"/></mxCell><mxCell id="2uu1BORdubVci02Plp6P-0" value="On the hour - data collection starts" style="rounded=0;whiteSpace=wrap;html=1;" parent="2d43wSeKXhC0iWQQYc0k-1" vertex="1"><mxGeometry x="500" y="20" width="120" height="60" as="geometry"/></mxCell><mxCell id="2uu1BORdubVci02Plp6P-9" style="edgeStyle=orthogonalEdgeStyle;rounded=0;orthogonalLoop=1;jettySize=auto;html=1;exitX=0.5;exitY=1;exitDx=0;exitDy=0;entryX=0.5;entryY=0;entryDx=0;entryDy=0;" parent="2d43wSeKXhC0iWQQYc0k-1" source="2uu1BORdubVci02Plp6P-1" target="2uu1BORdubVci02Plp6P-7" edge="1"><mxGeometry relative="1" as="geometry"/></mxCell><mxCell id="UMShhhioJzyEoPiI8dDE-5" style="edgeStyle=orthogonalEdgeStyle;rounded=0;orthogonalLoop=1;jettySize=auto;html=1;exitX=0;exitY=0.5;exitDx=0;exitDy=0;entryX=1;entryY=0.5;entryDx=0;entryDy=0;" parent="2d43wSeKXhC0iWQQYc0k-1" source="2uu1BORdubVci02Plp6P-1" target="UMShhhioJzyEoPiI8dDE-2" edge="1"><mxGeometry relative="1" as="geometry"/></mxCell><mxCell id="2uu1BORdubVci02Plp6P-1" value="All entries with kickoff &amp;lt; now - 12 hours filled?" style="rhombus;whiteSpace=wrap;html=1;align=center;" parent="2d43wSeKXhC0iWQQYc0k-1" vertex="1"><mxGeometry x="505" y="100" width="120" height="120" as="geometry"/></mxCell><mxCell id="2uu1BORdubVci02Plp6P-12" style="edgeStyle=orthogonalEdgeStyle;rounded=0;orthogonalLoop=1;jettySize=auto;html=1;exitX=0.5;exitY=1;exitDx=0;exitDy=0;entryX=0.5;entryY=0;entryDx=0;entryDy=0;" parent="2d43wSeKXhC0iWQQYc0k-1" source="2uu1BORdubVci02Plp6P-5" target="2uu1BORdubVci02Plp6P-11" edge="1"><mxGeometry relative="1" as="geometry"/></mxCell><mxCell id="UMShhhioJzyEoPiI8dDE-8" style="edgeStyle=orthogonalEdgeStyle;rounded=0;orthogonalLoop=1;jettySize=auto;html=1;exitX=0;exitY=0.5;exitDx=0;exitDy=0;entryX=1;entryY=0.5;entryDx=0;entryDy=0;" parent="2d43wSeKXhC0iWQQYc0k-1" source="2uu1BORdubVci02Plp6P-5" target="2uu1BORdubVci02Plp6P-13" edge="1"><mxGeometry relative="1" as="geometry"/></mxCell><mxCell id="2uu1BORdubVci02Plp6P-5" value="Data already exists for next GW?" style="rhombus;whiteSpace=wrap;html=1;" parent="2d43wSeKXhC0iWQQYc0k-1" vertex="1"><mxGeometry x="500" y="450" width="130" height="120" as="geometry"/></mxCell><mxCell id="UMShhhioJzyEoPiI8dDE-0" style="edgeStyle=orthogonalEdgeStyle;rounded=0;orthogonalLoop=1;jettySize=auto;html=1;exitX=0.5;exitY=1;exitDx=0;exitDy=0;entryX=0.5;entryY=0;entryDx=0;entryDy=0;" parent="2d43wSeKXhC0iWQQYc0k-1" source="2uu1BORdubVci02Plp6P-7" target="2uu1BORdubVci02Plp6P-5" edge="1"><mxGeometry relative="1" as="geometry"/></mxCell><mxCell id="2uu1BORdubVci02Plp6P-7" value="Collect next GW data" style="rounded=0;whiteSpace=wrap;html=1;" parent="2d43wSeKXhC0iWQQYc0k-1" vertex="1"><mxGeometry x="505" y="270" width="120" height="60" as="geometry"/></mxCell><mxCell id="2uu1BORdubVci02Plp6P-11" value="Dump newly collected data to DB" style="rounded=0;whiteSpace=wrap;html=1;" parent="2d43wSeKXhC0iWQQYc0k-1" vertex="1"><mxGeometry x="505" y="630" width="120" height="60" as="geometry"/></mxCell><mxCell id="UMShhhioJzyEoPiI8dDE-9" style="edgeStyle=orthogonalEdgeStyle;rounded=0;orthogonalLoop=1;jettySize=auto;html=1;exitX=0.5;exitY=1;exitDx=0;exitDy=0;entryX=0;entryY=0.5;entryDx=0;entryDy=0;" parent="2d43wSeKXhC0iWQQYc0k-1" source="2uu1BORdubVci02Plp6P-13" target="2uu1BORdubVci02Plp6P-11" edge="1"><mxGeometry relative="1" as="geometry"/></mxCell><mxCell id="2uu1BORdubVci02Plp6P-13" value="Delete outdated data from DB" style="rounded=0;whiteSpace=wrap;html=1;" parent="2d43wSeKXhC0iWQQYc0k-1" vertex="1"><mxGeometry x="290" y="480" width="120" height="60" as="geometry"/></mxCell><mxCell id="PURCvF6-EWdfbRYVAdmu-2" style="edgeStyle=orthogonalEdgeStyle;rounded=0;orthogonalLoop=1;jettySize=auto;html=1;exitX=0.5;exitY=1;exitDx=0;exitDy=0;entryX=0.5;entryY=0;entryDx=0;entryDy=0;" parent="2d43wSeKXhC0iWQQYc0k-1" source="UMShhhioJzyEoPiI8dDE-2" target="PURCvF6-EWdfbRYVAdmu-0" edge="1"><mxGeometry relative="1" as="geometry"/></mxCell><mxCell id="UMShhhioJzyEoPiI8dDE-2" value="Filter entries with no points scored and kickoff time &amp;lt; now - 12 hours (bps)" style="rounded=0;whiteSpace=wrap;html=1;" parent="2d43wSeKXhC0iWQQYc0k-1" vertex="1"><mxGeometry x="250" y="130" width="120" height="60" as="geometry"/></mxCell><mxCell id="UMShhhioJzyEoPiI8dDE-3" value="Fill in points scored" style="rounded=0;whiteSpace=wrap;html=1;" parent="2d43wSeKXhC0iWQQYc0k-1" vertex="1"><mxGeometry x="250" y="330" width="120" height="60" as="geometry"/></mxCell><mxCell id="UMShhhioJzyEoPiI8dDE-6" value="No" style="text;html=1;strokeColor=none;fillColor=none;align=center;verticalAlign=middle;whiteSpace=wrap;rounded=0;" parent="2d43wSeKXhC0iWQQYc0k-1" vertex="1"><mxGeometry x="430" y="130" width="40" height="20" as="geometry"/></mxCell><mxCell id="UMShhhioJzyEoPiI8dDE-7" value="Yes" style="text;html=1;strokeColor=none;fillColor=none;align=center;verticalAlign=middle;whiteSpace=wrap;rounded=0;" parent="2d43wSeKXhC0iWQQYc0k-1" vertex="1"><mxGeometry x="600" y="230" width="40" height="20" as="geometry"/></mxCell><mxCell id="UMShhhioJzyEoPiI8dDE-10" value="Yes" style="text;html=1;strokeColor=none;fillColor=none;align=center;verticalAlign=middle;whiteSpace=wrap;rounded=0;" parent="2d43wSeKXhC0iWQQYc0k-1" vertex="1"><mxGeometry x="440" y="480" width="40" height="20" as="geometry"/></mxCell><mxCell id="UMShhhioJzyEoPiI8dDE-11" value="No" style="text;html=1;strokeColor=none;fillColor=none;align=center;verticalAlign=middle;whiteSpace=wrap;rounded=0;" parent="2d43wSeKXhC0iWQQYc0k-1" vertex="1"><mxGeometry x="590" y="590" width="40" height="20" as="geometry"/></mxCell><mxCell id="PURCvF6-EWdfbRYVAdmu-1" style="edgeStyle=orthogonalEdgeStyle;rounded=0;orthogonalLoop=1;jettySize=auto;html=1;exitX=0.5;exitY=1;exitDx=0;exitDy=0;entryX=0.5;entryY=0;entryDx=0;entryDy=0;" parent="2d43wSeKXhC0iWQQYc0k-1" source="PURCvF6-EWdfbRYVAdmu-0" target="UMShhhioJzyEoPiI8dDE-3" edge="1"><mxGeometry relative="1" as="geometry"/></mxCell><mxCell id="PURCvF6-EWdfbRYVAdmu-0" value="Get points scored for these entries" style="rounded=0;whiteSpace=wrap;html=1;" parent="2d43wSeKXhC0iWQQYc0k-1" vertex="1"><mxGeometry x="250" y="230" width="120" height="60" as="geometry"/></mxCell><mxCell id="PURCvF6-EWdfbRYVAdmu-3" value="Player(id).get_points()" style="text;html=1;strokeColor=none;fillColor=none;align=center;verticalAlign=middle;whiteSpace=wrap;rounded=0;" parent="2d43wSeKXhC0iWQQYc0k-1" vertex="1"><mxGeometry x="150" y="250" width="70" height="20" as="geometry"/></mxCell><mxCell id="PURCvF6-EWdfbRYVAdmu-4" value="&lt;br&gt;player_list = Bootstrap().get_players()&lt;br&gt;For each player in player_list:&lt;br&gt;Bootstrap().get_player_data(id)&lt;br&gt;Player(id).get_player_data()&lt;br&gt;concatenate&lt;br&gt;append to list" style="text;html=1;strokeColor=none;fillColor=none;align=center;verticalAlign=middle;whiteSpace=wrap;rounded=0;" parent="2d43wSeKXhC0iWQQYc0k-1" vertex="1"><mxGeometry x="650" y="255" width="170" height="90" as="geometry"/></mxCell></root></mxGraphModel></diagram></mxfile>